<svg width="120" height="21" viewBox="0 0 120 21" fill="none" xmlns="http://www.w3.org/2000/svg">
<path d="M84.832 0.0435791C79.124 0.0435791 74.4817 4.67131 74.4817 10.3939C74.4817 16.1166 79.124 20.7297 84.832 20.7297C90.5401 20.7297 95.1824 16.102 95.1824 10.3793C95.1824 4.65671 90.5401 0.0435791 84.832 0.0435791ZM85.124 16.5837C81.416 16.7735 78.3795 13.7224 78.5693 10.029C78.7299 6.86109 81.3138 4.27715 84.4817 4.11657C88.1897 3.92679 91.2262 6.97788 91.0364 10.6713C90.8758 13.8392 88.2919 16.4231 85.124 16.5837Z" fill="#14B8A6"/>
<path d="M45.5182 16.5546H24.8321V20.6859H45.5182V16.5546Z" fill="#F8FAFC"/>
<path d="M45.5182 0H24.8321V4.13138H45.5182V0Z" fill="#F8FAFC"/>
<path d="M45.5182 8.27728H24.8321V12.4087H45.5182V8.27728Z" fill="#F8FAFC"/>
<path d="M20.6861 6.24796L7.79562 14.3063C6.74452 14.9633 7.21167 16.5983 8.45255 16.5983H20.6861V20.7297H0V14.5253L12.9197 6.45233C13.9708 5.7954 13.5036 4.17496 12.2628 4.17496H0V0.0435791H20.6861V6.24796Z" fill="#F8FAFC"/>
<path d="M55.8686 0.0435791L63.927 12.9341C64.5839 13.9852 66.2189 13.518 66.2189 12.2771V0.0435791H70.3503V20.7297H64.1459L56.073 7.81C55.416 6.7589 53.7956 7.22606 53.7956 8.46693V20.7297H49.6642V0.0435791H55.8686Z" fill="#F8FAFC"/>
<path d="M105.533 0.0435791L113.577 12.9341C114.234 13.9852 115.869 13.518 115.869 12.2771V0.0435791H120V20.7297H113.796L105.723 7.81C105.066 6.7589 103.445 7.22606 103.445 8.46693V20.7297H99.3138V0.0435791H105.533C105.518 0.0435791 105.518 0.0435791 105.533 0.0435791Z" fill="#F8FAFC"/>
</svg>
