<svg width="77" height="32" viewBox="0 0 77 32" fill="none" xmlns="http://www.w3.org/2000/svg">
<path d="M36.4772 15.6776H20.1344V18.9375H36.4772V15.6776Z" fill="#F1F5F9"/>
<path d="M36.4772 22.2086H20.1344V25.4685H36.4772V22.2086Z" fill="#F1F5F9"/>
<path d="M56.0839 15.6776H52.8199V32.0001H56.0839V15.6776Z" fill="#F1F5F9"/>
<path d="M43.0166 15.6776H39.7527V32.0001H43.0166V15.6776Z" fill="#F1F5F9"/>
<path d="M49.5558 15.6776H46.2919V32.0001H49.5558V15.6776Z" fill="#F1F5F9"/>
<path d="M3.79135 28.7402H3.77982H3.79135L16.8587 15.6776H11.957L0.515869 27.1045V28.7402V32.0001H36.477V28.7402H3.79135Z" fill="#F1F5F9"/>
<path d="M67.8248 15.6776C63.3152 15.6776 59.6476 19.3292 59.6476 23.8446C59.6476 28.3601 63.3037 32.0001 67.8248 32.0001C72.3458 32.0001 76.0019 28.3486 76.0019 23.8331C76.0019 19.3176 72.3343 15.6776 67.8248 15.6776ZM67.7902 28.7402C65.0683 28.7402 62.8539 26.5401 62.8539 23.8101C62.8539 21.0916 65.0683 18.8799 67.7902 18.8799C70.512 18.8799 72.7265 21.0801 72.7265 23.8101C72.7265 26.5286 70.512 28.7402 67.7902 28.7402Z" fill="#F1F5F9"/>
<path d="M75.9675 9.58386H70.6275L75.9675 4.25053V0L67.7903 8.16702V9.58386V12.406H75.9675V9.58386Z" fill="#14B8A6"/>
</svg>
